<svg xmlns="http://www.w3.org/2000/svg" viewBox="0 0 16 16">
  <!--
  <path d="M0.5,0  L0.5,1  M2.5,0  L2.5,1  M4.5,0  L4.5,1  M6.5,0  L6.5,1  M8.5,0  L8.5,1  M10.5,0  L10.5,1  M12.5,0  L12.5,1  M14.5,0  L14.5,1
M1.5,1  L1.5,2  M3.5,1  L3.5,2  M5.5,1  L5.5,2  M7.5,1  L7.5,2  M9.5,1  L9.5,2  M11.5,1  L11.5,2  M13.5,1  L13.5,2  M15.5,1  L15.5,2
M0.5,2  L0.5,3  M2.5,2  L2.5,3  M4.5,2  L4.5,3  M6.5,2  L6.5,3  M8.5,2  L8.5,3  M10.5,2  L10.5,3  M12.5,2  L12.5,3  M14.5,2  L14.5,3
M1.5,3  L1.5,4  M3.5,3  L3.5,4  M5.5,3  L5.5,4  M7.5,3  L7.5,4  M9.5,3  L9.5,4  M11.5,3  L11.5,4  M13.5,3  L13.5,4  M15.5,3  L15.5,4
M0.5,4  L0.5,5  M2.5,4  L2.5,5  M4.5,4  L4.5,5  M6.5,4  L6.5,5  M8.5,4  L8.5,5  M10.5,4  L10.5,5  M12.5,4  L12.5,5  M14.5,4  L14.5,5
M1.5,5  L1.5,6  M3.5,5  L3.5,6  M5.5,5  L5.5,6  M7.5,5  L7.5,6  M9.5,5  L9.5,6  M11.5,5  L11.5,6  M13.5,5  L13.5,6  M15.5,5  L15.5,6
M0.5,6  L0.5,7  M2.5,6  L2.5,7  M4.5,6  L4.5,7  M6.5,6  L6.5,7  M8.5,6  L8.5,7  M10.5,6  L10.5,7  M12.5,6  L12.5,7  M14.5,6  L14.5,7
M1.5,7  L1.5,8  M3.5,7  L3.5,8  M5.5,7  L5.5,8  M7.5,7  L7.5,8  M9.5,7  L9.5,8  M11.5,7  L11.5,8  M13.5,7  L13.5,8  M15.5,7  L15.5,8
M0.5,8  L0.5,9  M2.5,8  L2.5,9  M4.5,8  L4.5,9  M6.5,8  L6.5,9  M8.5,8  L8.5,9  M10.5,8  L10.5,9  M12.5,8  L12.5,9  M14.5,8  L14.5,9
M1.5,9  L1.5,10 M3.5,9  L3.5,10 M5.5,9  L5.5,10 M7.5,9  L7.5,10 M9.5,9  L9.5,10 M11.5,9  L11.5,10 M13.5,9  L13.5,10 M15.5,9  L15.5,10
M0.5,10 L0.5,11 M2.5,10 L2.5,11 M4.5,10 L4.5,11 M6.5,10 L6.5,11 M8.5,10 L8.5,11 M10.5,10 L10.5,11 M12.5,10 L12.5,11 M14.5,10 L14.5,11
M1.5,11 L1.5,12 M3.5,11 L3.5,12 M5.5,11 L5.5,12 M7.5,11 L7.5,12 M9.5,11 L9.5,12 M11.5,11 L11.5,12 M13.5,11 L13.5,12 M15.5,11 L15.5,12
M0.5,12 L0.5,13 M2.5,12 L2.5,13 M4.5,12 L4.5,13 M6.5,12 L6.5,13 M8.5,12 L8.5,13 M10.5,12 L10.5,13 M12.5,12 L12.5,13 M14.5,12 L14.5,13
M1.5,13 L1.5,14 M3.5,13 L3.5,14 M5.5,13 L5.5,14 M7.5,13 L7.5,14 M9.5,13 L9.5,14 M11.5,13 L11.5,14 M13.5,13 L13.5,14 M15.5,13 L15.5,14
M0.5,14 L0.5,15 M2.5,14 L2.5,15 M4.5,14 L4.5,15 M6.5,14 L6.5,15 M8.5,14 L8.5,15 M10.5,14 L10.5,15 M12.5,14 L12.5,15 M14.5,14 L14.5,15
M1.5,15 L1.5,16 M3.5,15 L3.5,16 M5.5,15 L5.5,16 M7.5,15 L7.5,16 M9.5,15 L9.5,16 M11.5,15 L11.5,16 M13.5,15 L13.5,16 M15.5,15 L15.5,16" fill="none" stroke="#FCC" />
  -->
  <style>
    path {
      fill: none;
      stroke: #BBB;
      stroke-linecap: square;
    }

    #active:target path {
      stroke: #FFF
    }
  </style>

  <g id="active">
    <path d="M4,4 L12,12 M4,12 L12,4" />
  </g>
</svg>
